<svg width="70" height="109" viewBox="0 0 70 109" fill="none" xmlns="http://www.w3.org/2000/svg">
<path d="M29.1 0.249996C40.1 0.249996 48.75 2.5 55.05 7C61.35 11.5 64.5 18.4 64.5 27.7C64.5 33.6 63.15 38.7 60.45 43C57.75 47.2 53.95 50.5 49.05 52.9C44.25 55.3 38.6 56.65 32.1 56.95L29.85 48.55C37.45 48.75 44.25 50.1 50.25 52.6C56.25 55 61 58.4 64.5 62.8C68.1 67.1 69.9 72.25 69.9 78.25C69.9 83.75 68.85 88.45 66.75 92.35C64.75 96.25 62 99.45 58.5 101.95C55.1 104.35 51.2 106.15 46.8 107.35C42.5 108.45 38 109 33.3 109H0.450001V0.249996H29.1ZM31.95 47.35C37.65 47.35 41.8 45.75 44.4 42.55C47 39.25 48.3 35.4 48.3 31C48.3 25.6 46.6 21.65 43.2 19.15C39.9 16.65 35.45 15.4 29.85 15.4H16.05V47.35H31.95ZM32.55 94.45C38.45 94.45 43.45 93.15 47.55 90.55C51.65 87.95 53.7 83.9 53.7 78.4C53.7 74.4 52.6 71.25 50.4 68.95C48.2 66.65 45.4 65 42 64C38.6 63 35.1 62.5 31.5 62.5H16.05V94.45H32.55Z" fill="white"/>
</svg>
